<?xml version="1.0" encoding="UTF-8"?>
<svg xmlns="http://www.w3.org/2000/svg" xmlns:xlink="http://www.w3.org/1999/xlink" stroke-dasharray="none" shape-rendering="auto" font-family="'Dialog'" width="646" text-rendering="auto" fill-opacity="1" contentScriptType="text/ecmascript" color-interpolation="auto" color-rendering="auto" preserveAspectRatio="xMidYMid meet" font-size="12" viewBox="0 0 646 250" fill="black" stroke="black" image-rendering="auto" stroke-miterlimit="10" zoomAndPan="magnify" version="1.0" stroke-linecap="square" stroke-linejoin="miter" contentStyleType="text/css" font-style="normal" height="250" stroke-width="1" stroke-dashoffset="0" font-weight="normal" stroke-opacity="1">
  <!--Generated by the Batik Graphics2D SVG Generator-->
  <defs id="genericDefs" />
  <g>
    <defs id="defs1">
      <clipPath clipPathUnits="userSpaceOnUse" id="clipPath1">
        <path d="M205 9 L277 9 L277 41 L205 41 L205 9 Z" />
      </clipPath>
      <clipPath clipPathUnits="userSpaceOnUse" id="clipPath2">
        <path d="M205 9 L282 9 L282 41 L205 41 L205 9 Z" />
      </clipPath>
      <clipPath clipPathUnits="userSpaceOnUse" id="clipPath3">
        <path d="M235 39 L247 39 L247 241 L235 241 L235 39 Z" />
      </clipPath>
      <clipPath clipPathUnits="userSpaceOnUse" id="clipPath4">
        <path d="M305 9 L457 9 L457 61 L305 61 L305 9 Z" />
      </clipPath>
      <clipPath clipPathUnits="userSpaceOnUse" id="clipPath5">
        <path d="M305 9 L461 9 L461 61 L305 61 L305 9 Z" />
      </clipPath>
      <clipPath clipPathUnits="userSpaceOnUse" id="clipPath6">
        <path d="M375 59 L387 59 L387 241 L375 241 L375 59 Z" />
      </clipPath>
      <clipPath clipPathUnits="userSpaceOnUse" id="clipPath7">
        <path d="M370 89 L392 89 L392 131 L370 131 L370 89 Z" />
      </clipPath>
      <clipPath clipPathUnits="userSpaceOnUse" id="clipPath8">
        <path d="M391 89 L428 89 L428 113 L391 113 L391 89 Z" />
      </clipPath>
      <clipPath clipPathUnits="userSpaceOnUse" id="clipPath9">
        <path d="M485 9 L637 9 L637 61 L485 61 L485 9 Z" />
      </clipPath>
      <clipPath clipPathUnits="userSpaceOnUse" id="clipPath10">
        <path d="M485 9 L642 9 L642 61 L485 61 L485 9 Z" />
      </clipPath>
      <clipPath clipPathUnits="userSpaceOnUse" id="clipPath11">
        <path d="M485 9 L641 9 L641 61 L485 61 L485 9 Z" />
      </clipPath>
      <clipPath clipPathUnits="userSpaceOnUse" id="clipPath12">
        <path d="M555 59 L567 59 L567 241 L555 241 L555 59 Z" />
      </clipPath>
      <clipPath clipPathUnits="userSpaceOnUse" id="clipPath13">
        <path d="M550 149 L572 149 L572 191 L550 191 L550 149 Z" />
      </clipPath>
      <clipPath clipPathUnits="userSpaceOnUse" id="clipPath14">
        <path d="M571 149 L615 149 L615 173 L571 173 L571 149 Z" />
      </clipPath>
      <clipPath clipPathUnits="userSpaceOnUse" id="clipPath15">
        <path d="M-1 -1 L647 -1 L647 251 L-1 251 L-1 -1 Z" />
      </clipPath>
      <clipPath clipPathUnits="userSpaceOnUse" id="clipPath16">
        <path d="M23 68 L593 68 L593 92 L23 92 L23 68 Z" />
      </clipPath>
      <clipPath clipPathUnits="userSpaceOnUse" id="clipPath17">
        <path d="M239 85 L251 85 L251 96 L239 96 L239 85 Z" />
      </clipPath>
      <clipPath clipPathUnits="userSpaceOnUse" id="clipPath18">
        <path d="M220 155 L574 155 L574 179 L220 179 L220 155 Z" />
      </clipPath>
      <clipPath clipPathUnits="userSpaceOnUse" id="clipPath19">
        <path d="M542 145 L554 145 L554 156 L542 156 L542 145 Z" />
      </clipPath>
    </defs>
    <g fill="rgb(238,201,142)" font-family="'Ubuntu'" stroke-linejoin="round" stroke="rgb(238,201,142)" stroke-width="0" stroke-miterlimit="0">
      <rect x="206" y="10" clip-path="url(#clipPath1)" width="70" height="30" stroke="none" />
    </g>
    <g stroke-width="0.1" font-family="'Ubuntu'" stroke-linecap="butt">
      <rect x="206" y="10" clip-path="url(#clipPath1)" fill="none" width="69" height="29" />
      <text x="210" font-size="19" y="32" clip-path="url(#clipPath2)" stroke="none" xml:space="preserve">System</text>
      <line clip-path="url(#clipPath3)" fill="none" x1="240" x2="240" y1="40" y2="240" stroke-dasharray="10,10" stroke-width="1.1" />
    </g>
    <g stroke-linecap="butt" fill="rgb(255,245,181)" font-family="'Ubuntu'" stroke-dasharray="10,10" stroke="rgb(255,245,181)" stroke-width="1.1">
      <rect x="306" y="10" clip-path="url(#clipPath4)" width="150" height="50" stroke="none" />
    </g>
    <g stroke-width="0.1" font-family="'Ubuntu'" stroke-linecap="butt">
      <rect x="306" y="10" clip-path="url(#clipPath4)" fill="none" width="149" height="49" />
      <text x="362" font-size="19" y="31" clip-path="url(#clipPath5)" stroke="none" xml:space="preserve">juan</text>
      <text x="311" font-size="19" y="53" clip-path="url(#clipPath5)" stroke="none" xml:space="preserve">: actCoordinator</text>
      <line clip-path="url(#clipPath6)" fill="none" x1="380" x2="380" y1="60" y2="240" stroke-dasharray="10,10" stroke-width="1.1" />
    </g>
    <g stroke-linecap="butt" fill="rgb(39,76,114)" font-family="'Ubuntu'" stroke-dasharray="10,10" stroke="rgb(39,76,114)" stroke-width="1.1">
      <rect x="371" y="90" clip-path="url(#clipPath7)" width="20" height="40" stroke="none" />
      <rect x="371" y="90" clip-path="url(#clipPath7)" fill="none" width="19" stroke-dasharray="none" height="39" stroke-width="0.1" />
    </g>
    <g stroke-width="0.1" font-size="19" font-family="'Ubuntu'" stroke-linecap="butt">
      <text xml:space="preserve" x="392" y="108" clip-path="url(#clipPath8)" stroke="none">out</text>
      <rect x="486" y="10" clip-path="url(#clipPath9)" fill="rgb(255,245,181)" width="150" height="50" stroke="none" />
      <rect x="486" y="10" clip-path="url(#clipPath9)" fill="none" width="149" height="49" />
      <text xml:space="preserve" x="540" y="31" clip-path="url(#clipPath10)" stroke="none">heca</text>
      <text xml:space="preserve" x="507" y="53" clip-path="url(#clipPath11)" stroke="none">: actHospital</text>
      <line clip-path="url(#clipPath12)" fill="none" x1="560" x2="560" y1="60" y2="240" stroke-dasharray="10,10" stroke-width="1.1" />
    </g>
    <g stroke-linecap="butt" fill="rgb(194,239,255)" font-family="'Ubuntu'" stroke-dasharray="10,10" stroke="rgb(194,239,255)" stroke-width="1.1">
      <rect x="551" y="150" clip-path="url(#clipPath13)" width="20" height="40" stroke="none" />
      <rect x="551" y="150" clip-path="url(#clipPath13)" fill="none" width="19" stroke-dasharray="none" height="39" stroke-width="0.1" />
    </g>
    <g stroke-width="0.1" font-size="19" font-family="'Ubuntu'" stroke-linecap="butt">
      <text xml:space="preserve" x="572" y="168" clip-path="url(#clipPath14)" stroke="none">in01</text>
      <line clip-path="url(#clipPath15)" fill="none" x1="371" x2="241" y1="90" y2="90" stroke="rgb(136,136,136)" stroke-width="2.1" />
      <text x="24" y="87" clip-path="url(#clipPath16)" stroke="none" stroke-width="2.1" xml:space="preserve">oeSendHospitalInfo(AdtGPSLocation,AdtQtyVictims,AetSeverity)</text>
      <line clip-path="url(#clipPath17)" fill="none" x1="248" x2="241" y1="87" y2="90" stroke="rgb(136,136,136)" stroke-width="2.1" />
      <line clip-path="url(#clipPath17)" fill="none" x1="241" x2="248" y1="90" y2="93" stroke="rgb(136,136,136)" stroke-width="2.1" />
    </g>
    <g stroke-linecap="butt" font-size="19" fill="rgb(136,136,136)" font-family="'Ubuntu'" stroke-dasharray="5,5" stroke="rgb(136,136,136)" stroke-width="2.1">
      <line clip-path="url(#clipPath15)" fill="none" x1="551" x2="241" y1="150" y2="150" />
      <text x="221" y="174" clip-path="url(#clipPath18)" fill="black" stroke="none" xml:space="preserve">ieSendHospitalInfo(10.4,25.8,4,medium)</text>
      <line clip-path="url(#clipPath19)" fill="none" x1="544" x2="551" y1="153" y2="150" stroke-dasharray="none" />
      <line clip-path="url(#clipPath19)" fill="none" x1="551" x2="544" y1="150" y2="147" stroke-dasharray="none" />
    </g>
  </g>
</svg>

