<?xml version="1.0" encoding="UTF-8"?>
<svg xmlns="http://www.w3.org/2000/svg" xmlns:xlink="http://www.w3.org/1999/xlink" stroke-dasharray="none" shape-rendering="auto" font-family="'Dialog'" width="456" text-rendering="auto" fill-opacity="1" contentScriptType="text/ecmascript" color-interpolation="auto" color-rendering="auto" preserveAspectRatio="xMidYMid meet" font-size="12" viewBox="0 0 456 250" fill="black" stroke="black" image-rendering="auto" stroke-miterlimit="10" zoomAndPan="magnify" version="1.0" stroke-linecap="square" stroke-linejoin="miter" contentStyleType="text/css" font-style="normal" height="250" stroke-width="1" stroke-dashoffset="0" font-weight="normal" stroke-opacity="1">
  <!--Generated by the Batik Graphics2D SVG Generator-->
  <defs id="genericDefs" />
  <g>
    <defs id="defs1">
      <clipPath clipPathUnits="userSpaceOnUse" id="clipPath1">
        <path d="M48 9 L120 9 L120 41 L48 41 L48 9 Z" />
      </clipPath>
      <clipPath clipPathUnits="userSpaceOnUse" id="clipPath2">
        <path d="M48 9 L125 9 L125 41 L48 41 L48 9 Z" />
      </clipPath>
      <clipPath clipPathUnits="userSpaceOnUse" id="clipPath3">
        <path d="M78 39 L90 39 L90 241 L78 241 L78 39 Z" />
      </clipPath>
      <clipPath clipPathUnits="userSpaceOnUse" id="clipPath4">
        <path d="M284 9 L436 9 L436 78 L284 78 L284 9 Z" />
      </clipPath>
      <clipPath clipPathUnits="userSpaceOnUse" id="clipPath5">
        <path d="M284 9 L440 9 L440 78 L284 78 L284 9 Z" />
      </clipPath>
      <clipPath clipPathUnits="userSpaceOnUse" id="clipPath6">
        <path d="M284 9 L438 9 L438 78 L284 78 L284 9 Z" />
      </clipPath>
      <clipPath clipPathUnits="userSpaceOnUse" id="clipPath7">
        <path d="M354 76 L366 76 L366 241 L354 241 L354 76 Z" />
      </clipPath>
      <clipPath clipPathUnits="userSpaceOnUse" id="clipPath8">
        <path d="M349 124 L371 124 L371 131 L349 131 L349 124 Z" />
      </clipPath>
      <clipPath clipPathUnits="userSpaceOnUse" id="clipPath9">
        <path d="M344 130 L381 130 L381 154 L344 154 L344 130 Z" />
      </clipPath>
      <clipPath clipPathUnits="userSpaceOnUse" id="clipPath10">
        <path d="M349 180 L371 180 L371 191 L349 191 L349 180 Z" />
      </clipPath>
      <clipPath clipPathUnits="userSpaceOnUse" id="clipPath11">
        <path d="M340 190 L384 190 L384 214 L340 214 L340 190 Z" />
      </clipPath>
      <clipPath clipPathUnits="userSpaceOnUse" id="clipPath12">
        <path d="M-1 -1 L457 -1 L457 251 L-1 251 L-1 -1 Z" />
      </clipPath>
      <clipPath clipPathUnits="userSpaceOnUse" id="clipPath13">
        <path d="M23 90 L437 90 L437 114 L23 114 L23 90 Z" />
      </clipPath>
      <clipPath clipPathUnits="userSpaceOnUse" id="clipPath14">
        <path d="M82 120 L94 120 L94 131 L82 131 L82 120 Z" />
      </clipPath>
      <clipPath clipPathUnits="userSpaceOnUse" id="clipPath15">
        <path d="M113 150 L323 150 L323 174 L113 174 L113 150 Z" />
      </clipPath>
      <clipPath clipPathUnits="userSpaceOnUse" id="clipPath16">
        <path d="M341 176 L353 176 L353 187 L341 187 L341 176 Z" />
      </clipPath>
    </defs>
    <g fill="rgb(238,201,142)" font-family="'Ubuntu'" stroke-linejoin="round" stroke="rgb(238,201,142)" stroke-width="0" stroke-miterlimit="0">
      <rect x="49" y="10" clip-path="url(#clipPath1)" width="70" height="30" stroke="none" />
    </g>
    <g stroke-width="0.1" font-family="'Ubuntu'" stroke-linecap="butt">
      <rect x="49" y="10" clip-path="url(#clipPath1)" fill="none" width="69" height="29" />
      <text x="53" font-size="19" y="32" clip-path="url(#clipPath2)" stroke="none" xml:space="preserve">System</text>
      <line clip-path="url(#clipPath3)" fill="none" x1="83" x2="83" y1="40" y2="240" stroke-dasharray="10,10" stroke-width="1.1" />
    </g>
    <g stroke-linecap="butt" fill="rgb(255,245,181)" font-family="'Ubuntu'" stroke-dasharray="10,10" stroke="rgb(255,245,181)" stroke-width="1.1">
      <rect x="285" y="10" clip-path="url(#clipPath4)" width="150" height="67" stroke="none" />
    </g>
    <g stroke-width="0.1" font-family="'Ubuntu'" stroke-linecap="butt">
      <rect x="285" y="10" clip-path="url(#clipPath4)" fill="none" width="149" height="66" />
      <text x="342" font-size="19" y="28" clip-path="url(#clipPath5)" stroke="none" xml:space="preserve">jose</text>
      <text x="355" font-size="19" y="50" clip-path="url(#clipPath6)" stroke="none" xml:space="preserve">: </text>
      <text x="286" font-size="19" y="72" clip-path="url(#clipPath5)" stroke="none" xml:space="preserve">actAdministrator</text>
      <line clip-path="url(#clipPath7)" fill="none" x1="359" x2="359" y1="77" y2="240" stroke-dasharray="10,10" stroke-width="1.1" />
    </g>
    <g stroke-linecap="butt" fill="rgb(39,76,114)" font-family="'Ubuntu'" stroke-dasharray="10,10" stroke="rgb(39,76,114)" stroke-width="1.1">
      <rect x="350" y="125" clip-path="url(#clipPath8)" width="20" height="5" stroke="none" />
      <rect x="350" y="125" clip-path="url(#clipPath8)" fill="none" width="19" stroke-dasharray="none" height="4" stroke-width="0.1" />
    </g>
    <g stroke-width="0.1" font-size="19" font-family="'Ubuntu'" stroke-linecap="butt">
      <text xml:space="preserve" x="345" y="149" clip-path="url(#clipPath9)" stroke="none">out</text>
      <rect x="350" y="181" clip-path="url(#clipPath10)" fill="rgb(194,239,255)" width="20" height="9" stroke="none" />
      <rect x="350" y="181" clip-path="url(#clipPath10)" fill="none" width="19" height="8" stroke="rgb(194,239,255)" />
      <text xml:space="preserve" x="341" y="209" clip-path="url(#clipPath11)" stroke="none">in01</text>
      <line clip-path="url(#clipPath12)" fill="none" x1="350" x2="84" y1="125" y2="125" stroke="rgb(136,136,136)" stroke-width="2.1" />
      <text x="24" y="109" clip-path="url(#clipPath13)" stroke="none" stroke-width="2.1" xml:space="preserve">oeAddHospital(AdtHospitalID,AdtGPSLocation)</text>
      <line clip-path="url(#clipPath14)" fill="none" x1="91" x2="84" y1="122" y2="125" stroke="rgb(136,136,136)" stroke-width="2.1" />
      <line clip-path="url(#clipPath14)" fill="none" x1="84" x2="91" y1="125" y2="128" stroke="rgb(136,136,136)" stroke-width="2.1" />
    </g>
    <g stroke-linecap="butt" font-size="19" fill="rgb(136,136,136)" font-family="'Ubuntu'" stroke-dasharray="5,5" stroke="rgb(136,136,136)" stroke-width="2.1">
      <line clip-path="url(#clipPath12)" fill="none" x1="350" x2="84" y1="181" y2="181" />
      <text x="114" y="169" clip-path="url(#clipPath15)" fill="black" stroke="none" xml:space="preserve">ieHospitalAdded(HECA)</text>
      <line clip-path="url(#clipPath16)" fill="none" x1="343" x2="350" y1="184" y2="181" stroke-dasharray="none" />
      <line clip-path="url(#clipPath16)" fill="none" x1="350" x2="343" y1="181" y2="178" stroke-dasharray="none" />
    </g>
  </g>
</svg>

