<?xml version="1.0" encoding="UTF-8"?>
<svg xmlns="http://www.w3.org/2000/svg" xmlns:xlink="http://www.w3.org/1999/xlink" stroke-dasharray="none" shape-rendering="auto" font-family="'Dialog'" width="608" text-rendering="auto" fill-opacity="1" contentScriptType="text/ecmascript" color-interpolation="auto" color-rendering="auto" preserveAspectRatio="xMidYMid meet" font-size="12" viewBox="0 0 608 250" fill="black" stroke="black" image-rendering="auto" stroke-miterlimit="10" zoomAndPan="magnify" version="1.0" stroke-linecap="square" stroke-linejoin="miter" contentStyleType="text/css" font-style="normal" height="250" stroke-width="1" stroke-dashoffset="0" font-weight="normal" stroke-opacity="1">
  <!--Generated by the Batik Graphics2D SVG Generator-->
  <defs id="genericDefs" />
  <g>
    <defs id="defs1">
      <clipPath clipPathUnits="userSpaceOnUse" id="clipPath1">
        <path d="M116 9 L188 9 L188 41 L116 41 L116 9 Z" />
      </clipPath>
      <clipPath clipPathUnits="userSpaceOnUse" id="clipPath2">
        <path d="M116 9 L193 9 L193 41 L116 41 L116 9 Z" />
      </clipPath>
      <clipPath clipPathUnits="userSpaceOnUse" id="clipPath3">
        <path d="M146 39 L158 39 L158 241 L146 241 L146 39 Z" />
      </clipPath>
      <clipPath clipPathUnits="userSpaceOnUse" id="clipPath4">
        <path d="M249 9 L401 9 L401 61 L249 61 L249 9 Z" />
      </clipPath>
      <clipPath clipPathUnits="userSpaceOnUse" id="clipPath5">
        <path d="M249 9 L406 9 L406 61 L249 61 L249 9 Z" />
      </clipPath>
      <clipPath clipPathUnits="userSpaceOnUse" id="clipPath6">
        <path d="M249 9 L405 9 L405 61 L249 61 L249 9 Z" />
      </clipPath>
      <clipPath clipPathUnits="userSpaceOnUse" id="clipPath7">
        <path d="M319 59 L331 59 L331 241 L319 241 L319 59 Z" />
      </clipPath>
      <clipPath clipPathUnits="userSpaceOnUse" id="clipPath8">
        <path d="M314 89 L336 89 L336 131 L314 131 L314 89 Z" />
      </clipPath>
      <clipPath clipPathUnits="userSpaceOnUse" id="clipPath9">
        <path d="M335 89 L372 89 L372 113 L335 113 L335 89 Z" />
      </clipPath>
      <clipPath clipPathUnits="userSpaceOnUse" id="clipPath10">
        <path d="M447 9 L599 9 L599 61 L447 61 L447 9 Z" />
      </clipPath>
      <clipPath clipPathUnits="userSpaceOnUse" id="clipPath11">
        <path d="M447 9 L605 9 L605 61 L447 61 L447 9 Z" />
      </clipPath>
      <clipPath clipPathUnits="userSpaceOnUse" id="clipPath12">
        <path d="M447 9 L603 9 L603 61 L447 61 L447 9 Z" />
      </clipPath>
      <clipPath clipPathUnits="userSpaceOnUse" id="clipPath13">
        <path d="M517 59 L529 59 L529 241 L517 241 L517 59 Z" />
      </clipPath>
      <clipPath clipPathUnits="userSpaceOnUse" id="clipPath14">
        <path d="M512 152 L534 152 L534 176 L512 176 L512 152 Z" />
      </clipPath>
      <clipPath clipPathUnits="userSpaceOnUse" id="clipPath15">
        <path d="M533 152 L577 152 L577 176 L533 176 L533 152 Z" />
      </clipPath>
      <clipPath clipPathUnits="userSpaceOnUse" id="clipPath16">
        <path d="M-1 -1 L609 -1 L609 251 L-1 251 L-1 -1 Z" />
      </clipPath>
      <clipPath clipPathUnits="userSpaceOnUse" id="clipPath17">
        <path d="M23 68 L448 68 L448 92 L23 92 L23 68 Z" />
      </clipPath>
      <clipPath clipPathUnits="userSpaceOnUse" id="clipPath18">
        <path d="M150 85 L162 85 L162 96 L150 96 L150 85 Z" />
      </clipPath>
      <clipPath clipPathUnits="userSpaceOnUse" id="clipPath19">
        <path d="M109 163 L562 163 L562 187 L109 187 L109 163 Z" />
      </clipPath>
      <clipPath clipPathUnits="userSpaceOnUse" id="clipPath20">
        <path d="M504 148 L516 148 L516 159 L504 159 L504 148 Z" />
      </clipPath>
    </defs>
    <g fill="rgb(238,201,142)" font-family="'Ubuntu'" stroke-linejoin="round" stroke="rgb(238,201,142)" stroke-width="0" stroke-miterlimit="0">
      <rect x="117" y="10" clip-path="url(#clipPath1)" width="70" height="30" stroke="none" />
    </g>
    <g stroke-width="0.1" font-family="'Ubuntu'" stroke-linecap="butt">
      <rect x="117" y="10" clip-path="url(#clipPath1)" fill="none" width="69" height="29" />
      <text x="121" font-size="19" y="32" clip-path="url(#clipPath2)" stroke="none" xml:space="preserve">System</text>
      <line clip-path="url(#clipPath3)" fill="none" x1="151" x2="151" y1="40" y2="240" stroke-dasharray="10,10" stroke-width="1.1" />
    </g>
    <g stroke-linecap="butt" fill="rgb(255,245,181)" font-family="'Ubuntu'" stroke-dasharray="10,10" stroke="rgb(255,245,181)" stroke-width="1.1">
      <rect x="250" y="10" clip-path="url(#clipPath4)" width="150" height="50" stroke="none" />
    </g>
    <g stroke-width="0.1" font-family="'Ubuntu'" stroke-linecap="butt">
      <rect x="250" y="10" clip-path="url(#clipPath4)" fill="none" width="149" height="49" />
      <text x="304" font-size="19" y="31" clip-path="url(#clipPath5)" stroke="none" xml:space="preserve">Juan</text>
      <text x="255" font-size="19" y="53" clip-path="url(#clipPath6)" stroke="none" xml:space="preserve">: actCoordinator</text>
      <line clip-path="url(#clipPath7)" fill="none" x1="324" x2="324" y1="60" y2="240" stroke-dasharray="10,10" stroke-width="1.1" />
    </g>
    <g stroke-linecap="butt" fill="rgb(39,76,114)" font-family="'Ubuntu'" stroke-dasharray="10,10" stroke="rgb(39,76,114)" stroke-width="1.1">
      <rect x="315" y="90" clip-path="url(#clipPath8)" width="20" height="40" stroke="none" />
      <rect x="315" y="90" clip-path="url(#clipPath8)" fill="none" width="19" stroke-dasharray="none" height="39" stroke-width="0.1" />
    </g>
    <g stroke-width="0.1" font-size="19" font-family="'Ubuntu'" stroke-linecap="butt">
      <text xml:space="preserve" x="336" y="108" clip-path="url(#clipPath9)" stroke="none">out</text>
      <rect x="448" y="10" clip-path="url(#clipPath10)" fill="rgb(255,245,181)" width="150" height="50" stroke="none" />
      <rect x="448" y="10" clip-path="url(#clipPath10)" fill="none" width="149" height="49" />
      <text xml:space="preserve" x="498" y="31" clip-path="url(#clipPath11)" stroke="none">HECA</text>
      <text xml:space="preserve" x="469" y="53" clip-path="url(#clipPath12)" stroke="none">: actHospital</text>
      <line clip-path="url(#clipPath13)" fill="none" x1="522" x2="522" y1="60" y2="240" stroke-dasharray="10,10" stroke-width="1.1" />
    </g>
    <g stroke-linecap="butt" fill="rgb(194,239,255)" font-family="'Ubuntu'" stroke-dasharray="10,10" stroke="rgb(194,239,255)" stroke-width="1.1">
      <rect x="513" y="153" clip-path="url(#clipPath14)" width="20" height="22" stroke="none" />
      <rect x="513" y="153" clip-path="url(#clipPath14)" fill="none" width="19" stroke-dasharray="none" height="21" stroke-width="0.1" />
    </g>
    <g stroke-width="0.1" font-size="19" font-family="'Ubuntu'" stroke-linecap="butt">
      <text xml:space="preserve" x="534" y="171" clip-path="url(#clipPath15)" stroke="none">in01</text>
      <line clip-path="url(#clipPath16)" fill="none" x1="315" x2="152" y1="90" y2="90" stroke="rgb(136,136,136)" stroke-width="2.1" />
      <text x="24" y="87" clip-path="url(#clipPath17)" stroke="none" stroke-width="2.1" xml:space="preserve">oeSendHospitalInfo(AdtHospitalInfo,AdtCrisisID)</text>
      <line clip-path="url(#clipPath18)" fill="none" x1="159" x2="152" y1="87" y2="90" stroke="rgb(136,136,136)" stroke-width="2.1" />
      <line clip-path="url(#clipPath18)" fill="none" x1="152" x2="159" y1="90" y2="93" stroke="rgb(136,136,136)" stroke-width="2.1" />
    </g>
    <g stroke-linecap="butt" font-size="19" fill="rgb(136,136,136)" font-family="'Ubuntu'" stroke-dasharray="5,5" stroke="rgb(136,136,136)" stroke-width="2.1">
      <line clip-path="url(#clipPath16)" fill="none" x1="513" x2="152" y1="153" y2="153" />
      <text x="110" y="182" clip-path="url(#clipPath19)" fill="black" stroke="none" xml:space="preserve">ieSendHospitalInfo(49.627675:6.159590,4,medium)</text>
      <line clip-path="url(#clipPath20)" fill="none" x1="506" x2="513" y1="156" y2="153" stroke-dasharray="none" />
      <line clip-path="url(#clipPath20)" fill="none" x1="513" x2="506" y1="153" y2="150" stroke-dasharray="none" />
    </g>
  </g>
</svg>

