<?xml version="1.0" encoding="UTF-8"?>
<svg xmlns="http://www.w3.org/2000/svg" xmlns:xlink="http://www.w3.org/1999/xlink" stroke-dasharray="none" shape-rendering="auto" font-family="'Dialog'" width="904" text-rendering="auto" fill-opacity="1" contentScriptType="text/ecmascript" color-interpolation="auto" color-rendering="auto" preserveAspectRatio="xMidYMid meet" font-size="12" viewBox="0 0 904 460" fill="black" stroke="black" image-rendering="auto" stroke-miterlimit="10" zoomAndPan="magnify" version="1.0" stroke-linecap="square" stroke-linejoin="miter" contentStyleType="text/css" font-style="normal" height="460" stroke-width="1" stroke-dashoffset="0" font-weight="normal" stroke-opacity="1">
  <!--Generated by the Batik Graphics2D SVG Generator-->
  <defs id="genericDefs" />
  <g>
    <defs id="defs1">
      <clipPath clipPathUnits="userSpaceOnUse" id="clipPath1">
        <path d="M132 9 L204 9 L204 41 L132 41 L132 9 Z" />
      </clipPath>
      <clipPath clipPathUnits="userSpaceOnUse" id="clipPath2">
        <path d="M132 9 L209 9 L209 41 L132 41 L132 9 Z" />
      </clipPath>
      <clipPath clipPathUnits="userSpaceOnUse" id="clipPath3">
        <path d="M162 39 L174 39 L174 451 L162 451 L162 39 Z" />
      </clipPath>
      <clipPath clipPathUnits="userSpaceOnUse" id="clipPath4">
        <path d="M314 9 L466 9 L466 61 L314 61 L314 9 Z" />
      </clipPath>
      <clipPath clipPathUnits="userSpaceOnUse" id="clipPath5">
        <path d="M314 9 L470 9 L470 61 L314 61 L314 9 Z" />
      </clipPath>
      <clipPath clipPathUnits="userSpaceOnUse" id="clipPath6">
        <path d="M384 59 L396 59 L396 451 L384 451 L384 59 Z" />
      </clipPath>
      <clipPath clipPathUnits="userSpaceOnUse" id="clipPath7">
        <path d="M379 89 L401 89 L401 131 L379 131 L379 89 Z" />
      </clipPath>
      <clipPath clipPathUnits="userSpaceOnUse" id="clipPath8">
        <path d="M400 89 L459 89 L459 113 L400 113 L400 89 Z" />
      </clipPath>
      <clipPath clipPathUnits="userSpaceOnUse" id="clipPath9">
        <path d="M379 209 L401 209 L401 251 L379 251 L379 209 Z" />
      </clipPath>
      <clipPath clipPathUnits="userSpaceOnUse" id="clipPath10">
        <path d="M400 209 L459 209 L459 233 L400 233 L400 209 Z" />
      </clipPath>
      <clipPath clipPathUnits="userSpaceOnUse" id="clipPath11">
        <path d="M379 149 L401 149 L401 191 L379 191 L379 149 Z" />
      </clipPath>
      <clipPath clipPathUnits="userSpaceOnUse" id="clipPath12">
        <path d="M400 149 L444 149 L444 173 L400 173 L400 149 Z" />
      </clipPath>
      <clipPath clipPathUnits="userSpaceOnUse" id="clipPath13">
        <path d="M379 359 L401 359 L401 401 L379 401 L379 359 Z" />
      </clipPath>
      <clipPath clipPathUnits="userSpaceOnUse" id="clipPath14">
        <path d="M400 359 L444 359 L444 383 L400 383 L400 359 Z" />
      </clipPath>
      <clipPath clipPathUnits="userSpaceOnUse" id="clipPath15">
        <path d="M535 9 L687 9 L687 61 L535 61 L535 9 Z" />
      </clipPath>
      <clipPath clipPathUnits="userSpaceOnUse" id="clipPath16">
        <path d="M535 9 L692 9 L692 61 L535 61 L535 9 Z" />
      </clipPath>
      <clipPath clipPathUnits="userSpaceOnUse" id="clipPath17">
        <path d="M535 9 L691 9 L691 61 L535 61 L535 9 Z" />
      </clipPath>
      <clipPath clipPathUnits="userSpaceOnUse" id="clipPath18">
        <path d="M605 59 L617 59 L617 451 L605 451 L605 59 Z" />
      </clipPath>
      <clipPath clipPathUnits="userSpaceOnUse" id="clipPath19">
        <path d="M600 269 L622 269 L622 311 L600 311 L600 269 Z" />
      </clipPath>
      <clipPath clipPathUnits="userSpaceOnUse" id="clipPath20">
        <path d="M621 269 L665 269 L665 293 L621 293 L621 269 Z" />
      </clipPath>
      <clipPath clipPathUnits="userSpaceOnUse" id="clipPath21">
        <path d="M743 9 L895 9 L895 61 L743 61 L743 9 Z" />
      </clipPath>
      <clipPath clipPathUnits="userSpaceOnUse" id="clipPath22">
        <path d="M743 9 L899 9 L899 61 L743 61 L743 9 Z" />
      </clipPath>
      <clipPath clipPathUnits="userSpaceOnUse" id="clipPath23">
        <path d="M813 59 L825 59 L825 451 L813 451 L813 59 Z" />
      </clipPath>
      <clipPath clipPathUnits="userSpaceOnUse" id="clipPath24">
        <path d="M808 314 L830 314 L830 356 L808 356 L808 314 Z" />
      </clipPath>
      <clipPath clipPathUnits="userSpaceOnUse" id="clipPath25">
        <path d="M829 314 L873 314 L873 338 L829 338 L829 314 Z" />
      </clipPath>
      <clipPath clipPathUnits="userSpaceOnUse" id="clipPath26">
        <path d="M-1 -1 L905 -1 L905 461 L-1 461 L-1 -1 Z" />
      </clipPath>
      <clipPath clipPathUnits="userSpaceOnUse" id="clipPath27">
        <path d="M166 68 L386 68 L386 92 L166 92 L166 68 Z" />
      </clipPath>
      <clipPath clipPathUnits="userSpaceOnUse" id="clipPath28">
        <path d="M166 85 L178 85 L178 96 L166 96 L166 85 Z" />
      </clipPath>
      <clipPath clipPathUnits="userSpaceOnUse" id="clipPath29">
        <path d="M23 188 L529 188 L529 212 L23 212 L23 188 Z" />
      </clipPath>
      <clipPath clipPathUnits="userSpaceOnUse" id="clipPath30">
        <path d="M166 205 L178 205 L178 216 L166 216 L166 205 Z" />
      </clipPath>
      <clipPath clipPathUnits="userSpaceOnUse" id="clipPath31">
        <path d="M132 128 L421 128 L421 152 L132 152 L132 128 Z" />
      </clipPath>
      <clipPath clipPathUnits="userSpaceOnUse" id="clipPath32">
        <path d="M371 145 L383 145 L383 156 L371 156 L371 145 Z" />
      </clipPath>
      <clipPath clipPathUnits="userSpaceOnUse" id="clipPath33">
        <path d="M181 248 L591 248 L591 272 L181 272 L181 248 Z" />
      </clipPath>
      <clipPath clipPathUnits="userSpaceOnUse" id="clipPath34">
        <path d="M592 265 L604 265 L604 276 L592 276 L592 265 Z" />
      </clipPath>
      <clipPath clipPathUnits="userSpaceOnUse" id="clipPath35">
        <path d="M285 293 L695 293 L695 317 L285 317 L285 293 Z" />
      </clipPath>
      <clipPath clipPathUnits="userSpaceOnUse" id="clipPath36">
        <path d="M800 310 L812 310 L812 321 L800 321 L800 310 Z" />
      </clipPath>
      <clipPath clipPathUnits="userSpaceOnUse" id="clipPath37">
        <path d="M148 338 L405 338 L405 362 L148 362 L148 338 Z" />
      </clipPath>
      <clipPath clipPathUnits="userSpaceOnUse" id="clipPath38">
        <path d="M371 355 L383 355 L383 366 L371 366 L371 355 Z" />
      </clipPath>
    </defs>
    <g fill="rgb(238,201,142)" font-family="'Ubuntu'" stroke-linejoin="round" stroke="rgb(238,201,142)" stroke-width="0" stroke-miterlimit="0">
      <rect x="133" y="10" clip-path="url(#clipPath1)" width="70" height="30" stroke="none" />
    </g>
    <g stroke-width="0.1" font-family="'Ubuntu'" stroke-linecap="butt">
      <rect x="133" y="10" clip-path="url(#clipPath1)" fill="none" width="69" height="29" />
      <text x="137" font-size="19" y="32" clip-path="url(#clipPath2)" stroke="none" xml:space="preserve">System</text>
      <line clip-path="url(#clipPath3)" fill="none" x1="167" x2="167" y1="40" y2="450" stroke-dasharray="10,10" stroke-width="1.1" />
    </g>
    <g stroke-linecap="butt" fill="rgb(255,245,181)" font-family="'Ubuntu'" stroke-dasharray="10,10" stroke="rgb(255,245,181)" stroke-width="1.1">
      <rect x="315" y="10" clip-path="url(#clipPath4)" width="150" height="50" stroke="none" />
    </g>
    <g stroke-width="0.1" font-family="'Ubuntu'" stroke-linecap="butt">
      <rect x="315" y="10" clip-path="url(#clipPath4)" fill="none" width="149" height="49" />
      <text x="372" font-size="19" y="31" clip-path="url(#clipPath5)" stroke="none" xml:space="preserve">jose</text>
      <text x="320" font-size="19" y="53" clip-path="url(#clipPath5)" stroke="none" xml:space="preserve">: actCoordinator</text>
      <line clip-path="url(#clipPath6)" fill="none" x1="389" x2="389" y1="60" y2="450" stroke-dasharray="10,10" stroke-width="1.1" />
    </g>
    <g stroke-linecap="butt" fill="rgb(39,76,114)" font-family="'Ubuntu'" stroke-dasharray="10,10" stroke="rgb(39,76,114)" stroke-width="1.1">
      <rect x="380" y="90" clip-path="url(#clipPath7)" width="20" height="40" stroke="none" />
      <rect x="380" y="90" clip-path="url(#clipPath7)" fill="none" width="19" stroke-dasharray="none" height="39" stroke-width="0.1" />
    </g>
    <g stroke-width="0.1" font-size="19" font-family="'Ubuntu'" stroke-linecap="butt">
      <text xml:space="preserve" x="401" y="108" clip-path="url(#clipPath8)" stroke="none">out01</text>
      <rect x="380" y="210" clip-path="url(#clipPath9)" fill="rgb(39,76,114)" width="20" height="40" stroke="none" />
      <rect x="380" y="210" clip-path="url(#clipPath9)" fill="none" width="19" height="39" stroke="rgb(39,76,114)" />
      <text xml:space="preserve" x="401" y="228" clip-path="url(#clipPath10)" stroke="none">out02</text>
      <rect x="380" y="150" clip-path="url(#clipPath11)" fill="rgb(194,239,255)" width="20" height="40" stroke="none" />
      <rect x="380" y="150" clip-path="url(#clipPath11)" fill="none" width="19" height="39" stroke="rgb(194,239,255)" />
      <text xml:space="preserve" x="401" y="168" clip-path="url(#clipPath12)" stroke="none">in01</text>
      <rect x="380" y="360" clip-path="url(#clipPath13)" fill="rgb(194,239,255)" width="20" height="40" stroke="none" />
      <rect x="380" y="360" clip-path="url(#clipPath13)" fill="none" width="19" height="39" stroke="rgb(194,239,255)" />
      <text xml:space="preserve" x="401" y="378" clip-path="url(#clipPath14)" stroke="none">in04</text>
      <rect x="536" y="10" clip-path="url(#clipPath15)" fill="rgb(255,245,181)" width="150" height="50" stroke="none" />
      <rect x="536" y="10" clip-path="url(#clipPath15)" fill="none" width="149" height="49" />
      <text xml:space="preserve" x="590" y="31" clip-path="url(#clipPath16)" stroke="none">heca</text>
      <text xml:space="preserve" x="557" y="53" clip-path="url(#clipPath17)" stroke="none">: actHospital</text>
      <line clip-path="url(#clipPath18)" fill="none" x1="610" x2="610" y1="60" y2="450" stroke-dasharray="10,10" stroke-width="1.1" />
    </g>
    <g stroke-linecap="butt" fill="rgb(194,239,255)" font-family="'Ubuntu'" stroke-dasharray="10,10" stroke="rgb(194,239,255)" stroke-width="1.1">
      <rect x="601" y="270" clip-path="url(#clipPath19)" width="20" height="40" stroke="none" />
      <rect x="601" y="270" clip-path="url(#clipPath19)" fill="none" width="19" stroke-dasharray="none" height="39" stroke-width="0.1" />
    </g>
    <g stroke-width="0.1" font-size="19" font-family="'Ubuntu'" stroke-linecap="butt">
      <text xml:space="preserve" x="622" y="288" clip-path="url(#clipPath20)" stroke="none">in02</text>
      <rect x="744" y="10" clip-path="url(#clipPath21)" fill="rgb(255,245,181)" width="150" height="50" stroke="none" />
      <rect x="744" y="10" clip-path="url(#clipPath21)" fill="none" width="149" height="49" />
      <text xml:space="preserve" x="776" y="31" clip-path="url(#clipPath22)" stroke="none">provincial</text>
      <text xml:space="preserve" x="765" y="53" clip-path="url(#clipPath22)" stroke="none">: actHospital</text>
      <line clip-path="url(#clipPath23)" fill="none" x1="818" x2="818" y1="60" y2="450" stroke-dasharray="10,10" stroke-width="1.1" />
    </g>
    <g stroke-linecap="butt" fill="rgb(194,239,255)" font-family="'Ubuntu'" stroke-dasharray="10,10" stroke="rgb(194,239,255)" stroke-width="1.1">
      <rect x="809" y="315" clip-path="url(#clipPath24)" width="20" height="40" stroke="none" />
      <rect x="809" y="315" clip-path="url(#clipPath24)" fill="none" width="19" stroke-dasharray="none" height="39" stroke-width="0.1" />
    </g>
    <g stroke-width="0.1" font-size="19" font-family="'Ubuntu'" stroke-linecap="butt">
      <text xml:space="preserve" x="830" y="333" clip-path="url(#clipPath25)" stroke="none">in03</text>
      <line clip-path="url(#clipPath26)" fill="none" x1="380" x2="168" y1="90" y2="90" stroke="rgb(136,136,136)" stroke-width="2.1" />
      <text x="167" y="87" clip-path="url(#clipPath27)" stroke="none" stroke-width="2.1" xml:space="preserve">oeSetCrisisHandler("12")</text>
      <line clip-path="url(#clipPath28)" fill="none" x1="175" x2="168" y1="87" y2="90" stroke="rgb(136,136,136)" stroke-width="2.1" />
      <line clip-path="url(#clipPath28)" fill="none" x1="168" x2="175" y1="90" y2="93" stroke="rgb(136,136,136)" stroke-width="2.1" />
      <line clip-path="url(#clipPath26)" fill="none" x1="380" x2="168" y1="210" y2="210" stroke="rgb(136,136,136)" stroke-width="2.1" />
      <text x="24" y="207" clip-path="url(#clipPath29)" stroke="none" stroke-width="2.1" xml:space="preserve">oeSendHospitalInfo("44.32535:6.159590","2","high","12")</text>
      <line clip-path="url(#clipPath30)" fill="none" x1="175" x2="168" y1="207" y2="210" stroke="rgb(136,136,136)" stroke-width="2.1" />
      <line clip-path="url(#clipPath30)" fill="none" x1="168" x2="175" y1="210" y2="213" stroke="rgb(136,136,136)" stroke-width="2.1" />
    </g>
    <g stroke-linecap="butt" font-size="19" fill="rgb(136,136,136)" font-family="'Ubuntu'" stroke-dasharray="5,5" stroke="rgb(136,136,136)" stroke-width="2.1">
      <line clip-path="url(#clipPath26)" fill="none" x1="380" x2="168" y1="150" y2="150" />
      <text x="133" y="147" clip-path="url(#clipPath31)" fill="black" stroke="none" xml:space="preserve">ieMessage(Set crisis handling ok)</text>
      <line clip-path="url(#clipPath32)" fill="none" x1="373" x2="380" y1="153" y2="150" stroke-dasharray="none" />
      <line clip-path="url(#clipPath32)" fill="none" x1="380" x2="373" y1="150" y2="147" stroke-dasharray="none" />
      <line clip-path="url(#clipPath26)" fill="none" x1="601" x2="168" y1="270" y2="270" />
      <text x="182" y="267" clip-path="url(#clipPath33)" fill="black" stroke="none" xml:space="preserve">ieSendHospitalInfo(44.32535:6.159590,2,high)</text>
      <line clip-path="url(#clipPath34)" fill="none" x1="594" x2="601" y1="273" y2="270" stroke-dasharray="none" />
      <line clip-path="url(#clipPath34)" fill="none" x1="601" x2="594" y1="270" y2="267" stroke-dasharray="none" />
      <line clip-path="url(#clipPath26)" fill="none" x1="809" x2="168" y1="315" y2="315" />
      <text x="286" y="312" clip-path="url(#clipPath35)" fill="black" stroke="none" xml:space="preserve">ieSendHospitalInfo(44.32535:6.159590,2,high)</text>
      <line clip-path="url(#clipPath36)" fill="none" x1="802" x2="809" y1="318" y2="315" stroke-dasharray="none" />
      <line clip-path="url(#clipPath36)" fill="none" x1="809" x2="802" y1="315" y2="312" stroke-dasharray="none" />
      <line clip-path="url(#clipPath26)" fill="none" x1="380" x2="168" y1="360" y2="360" />
      <text x="149" y="357" clip-path="url(#clipPath37)" fill="black" stroke="none" xml:space="preserve">ieMessage(Information send)</text>
      <line clip-path="url(#clipPath38)" fill="none" x1="373" x2="380" y1="363" y2="360" stroke-dasharray="none" />
      <line clip-path="url(#clipPath38)" fill="none" x1="380" x2="373" y1="360" y2="357" stroke-dasharray="none" />
    </g>
  </g>
</svg>

